# xmcd
#
# Track frame offsets:
#	150
#	17502
#	42530
#	74045
#	99115
#	121350
#
# Disc length: 1922 seconds
#
# Revision: 0
# Processed by: cddbd v1.5.2PL0 Copyright (c) Steve Scherf et al.
# Submitted via: audiograbber 1.83.01
#
DISCID=4b078006
DTITLE=Fu-Tourist - Big Trouble [CDM)
DYEAR=2001
DGENRE=Electronic
TTITLE0=Big Trouble (Radio Edit)
TTITLE1=Big Trouble (Sugar Vision Doubletrouble)
TTITLE2=Big Trouble (Label 23 Mix)
TTITLE3=Big Trouble (Mr. Velcro Fastener Troubleshooting)
TTITLE4=Big Trouble (Who's In Trouble Now? - Scsio vs. Fu-Tourist)
TTITLE5=Big Trouble (Daniel Torch Flying V Mix)
EXTD=TR.
EXTT0=
EXTT1=
EXTT2=
EXTT3=
EXTT4=
EXTT5=
PLAYORDER=
